<svg xmlns="http://www.w3.org/2000/svg" xmlns:xlink="http://www.w3.org/1999/xlink" width="500" zoomAndPan="magnify" viewBox="0 0 375 374.999991" height="500" preserveAspectRatio="xMidYMid meet" version="1.0"><defs><g/><clipPath id="5c21c61768"><path d="M 3 2.246094 L 374 2.246094 L 374 374.996094 L 3 374.996094 Z M 3 2.246094 " clip-rule="nonzero"/></clipPath></defs><path fill="#0d0bfd" d="M 188.441406 117.902344 C 208.261719 117.902344 224.3125 133.953125 224.3125 153.773438 C 224.3125 173.5625 208.261719 189.644531 188.441406 189.644531 C 168.617188 189.644531 152.570312 173.5625 152.570312 153.773438 C 152.570312 133.953125 168.617188 117.902344 188.441406 117.902344 Z M 188.441406 201.59375 C 214.78125 201.59375 236.292969 180.179688 236.292969 153.773438 C 236.292969 127.367188 214.847656 105.921875 188.441406 105.921875 C 162.035156 105.921875 140.589844 127.367188 140.589844 153.773438 C 140.589844 180.179688 162.101562 201.59375 188.441406 201.59375 " fill-opacity="1" fill-rule="nonzero"/><g clip-path="url(#5c21c61768)"><path fill="#0d0bfd" d="M 27.015625 255.398438 L 27.015625 219.527344 L 349.863281 219.527344 L 349.863281 255.398438 Z M 66.859375 175.183594 L 97.238281 153.773438 L 66.859375 132.328125 L 102.730469 122.601562 L 81.519531 92.058594 L 118.582031 95.132812 L 109.117188 59.195312 L 142.875 74.75 L 146.25 37.6875 L 172.65625 63.894531 L 188.441406 30.273438 L 204.292969 63.894531 L 230.699219 37.6875 L 234.074219 74.75 L 267.828125 59.195312 L 258.363281 95.132812 L 295.429688 92.058594 L 274.148438 122.601562 L 310.023438 132.328125 L 279.644531 153.773438 L 310.023438 175.183594 L 274.148438 184.945312 L 289.835938 207.546875 L 87.011719 207.546875 L 102.730469 184.945312 Z M 361.8125 363.015625 L 361.8125 207.613281 L 304.429688 207.613281 L 293.640625 192.128906 L 337.6875 180.179688 L 300.390625 153.839844 L 337.6875 127.5 L 293.640625 115.519531 L 319.71875 78.058594 L 274.214844 81.863281 L 285.863281 37.753906 L 244.5 56.914062 L 240.296875 11.476562 L 207.964844 43.644531 L 188.441406 2.246094 L 168.984375 43.476562 L 136.652344 11.34375 L 132.449219 56.746094 L 91.082031 37.621094 L 102.730469 81.699219 L 57.230469 77.894531 L 83.308594 115.386719 L 39.261719 127.367188 L 76.523438 153.707031 L 39.261719 180.015625 L 83.308594 191.996094 L 72.519531 207.480469 L 15.039062 207.480469 L 15.039062 362.882812 L 3.09375 362.882812 L 3.09375 374.996094 L 38.964844 374.996094 L 38.964844 363.015625 L 27.015625 363.015625 L 27.015625 267.347656 L 349.863281 267.347656 L 349.863281 363.015625 L 337.886719 363.015625 L 337.886719 374.996094 L 373.789062 374.996094 L 373.789062 363.015625 L 361.8125 363.015625 " fill-opacity="1" fill-rule="nonzero"/></g><g fill="#1ccdf1" fill-opacity="1"><g transform="translate(84.520637, 365.358282)"><g><path d="M 15.78125 -14.625 L 13.796875 -14.625 L 13.796875 -20.109375 L 9.0625 -20.109375 L 9.0625 -1.984375 L 12.609375 -1.984375 L 12.609375 0 L 3.15625 0 L 3.15625 -1.984375 L 6.71875 -1.984375 L 6.71875 -20.109375 L 1.984375 -20.109375 L 1.984375 -14.625 L 0 -14.625 L 0 -22.09375 L 15.78125 -22.09375 Z M 15.78125 -14.625 "/></g></g></g><g fill="#1ccdf1" fill-opacity="1"><g transform="translate(103.446694, 365.358282)"><g><path d="M 14.953125 0 L 12.609375 0 L 12.609375 -10.21875 L 3.15625 -10.21875 L 3.15625 0 L 0.828125 0 L 0.828125 -22.09375 L 3.15625 -22.09375 L 3.15625 -12.203125 L 12.609375 -12.203125 L 12.609375 -22.09375 L 14.953125 -22.09375 Z M 14.953125 0 "/></g></g></g><g fill="#1ccdf1" fill-opacity="1"><g transform="translate(122.372751, 365.358282)"><g><path d="M 14.953125 0 L 0.828125 0 L 0.828125 -22.09375 L 14.953125 -22.09375 L 14.953125 -20.109375 L 3.15625 -20.109375 L 3.15625 -12.203125 L 11.84375 -12.203125 L 11.84375 -10.21875 L 3.15625 -10.21875 L 3.15625 -1.984375 L 14.953125 -1.984375 Z M 14.953125 0 "/></g></g></g><g fill="#1ccdf1" fill-opacity="1"><g transform="translate(141.298809, 365.358282)"><g><path d="M 15.78125 -7.109375 L 0 -7.109375 L 0 -9.09375 L 15.78125 -9.09375 Z M 15.78125 -7.109375 "/></g></g></g><g fill="#1ccdf1" fill-opacity="1"><g transform="translate(160.224866, 365.358282)"><g><path d="M 14.953125 0 L 12.609375 0 L 12.609375 -10.21875 L 3.15625 -10.21875 L 3.15625 0 L 0.828125 0 L 0.828125 -22.09375 L 3.15625 -22.09375 L 3.15625 -12.203125 L 12.609375 -12.203125 L 12.609375 -22.09375 L 14.953125 -22.09375 Z M 14.953125 0 "/></g></g></g><g fill="#1ccdf1" fill-opacity="1"><g transform="translate(179.150923, 365.358282)"><g><path d="M 16.84375 0 L 14.359375 0 L 12.28125 -6.3125 L 3.53125 -6.3125 L 1.484375 0 L -1 0 L 6.34375 -22.09375 L 9.5 -22.09375 Z M 11.609375 -8.359375 L 7.90625 -19.75 L 4.203125 -8.359375 Z M 11.609375 -8.359375 "/></g></g></g><g fill="#1ccdf1" fill-opacity="1"><g transform="translate(198.07698, 365.358282)"><g><path d="M 15.90625 -5.796875 C 15.332031 -3.898438 14.390625 -2.394531 13.078125 -1.28125 C 11.773438 -0.164062 10.128906 0.390625 8.140625 0.390625 C 6.597656 0.390625 5.289062 0.0703125 4.21875 -0.5625 C 3.144531 -1.207031 2.265625 -2.050781 1.578125 -3.09375 C 0.898438 -4.144531 0.410156 -5.359375 0.109375 -6.734375 C -0.191406 -8.109375 -0.34375 -9.535156 -0.34375 -11.015625 C -0.34375 -12.492188 -0.191406 -13.921875 0.109375 -15.296875 C 0.410156 -16.679688 0.898438 -17.898438 1.578125 -18.953125 C 2.265625 -20.015625 3.144531 -20.863281 4.21875 -21.5 C 5.289062 -22.144531 6.597656 -22.46875 8.140625 -22.46875 C 9.503906 -22.46875 10.671875 -22.222656 11.640625 -21.734375 C 12.617188 -21.253906 13.335938 -20.515625 13.796875 -19.515625 L 13.796875 -22.09375 L 15.78125 -22.09375 L 15.78125 -14.84375 L 13.796875 -14.84375 C 13.796875 -15.625 13.644531 -16.359375 13.34375 -17.046875 C 13.050781 -17.742188 12.648438 -18.347656 12.140625 -18.859375 C 11.628906 -19.367188 11.023438 -19.765625 10.328125 -20.046875 C 9.640625 -20.335938 8.910156 -20.484375 8.140625 -20.484375 C 6.941406 -20.484375 5.953125 -20.203125 5.171875 -19.640625 C 4.390625 -19.078125 3.757812 -18.335938 3.28125 -17.421875 C 2.8125 -16.503906 2.476562 -15.488281 2.28125 -14.375 C 2.082031 -13.257812 1.984375 -12.140625 1.984375 -11.015625 C 1.984375 -9.910156 2.082031 -8.796875 2.28125 -7.671875 C 2.476562 -6.554688 2.8125 -5.546875 3.28125 -4.640625 C 3.757812 -3.742188 4.390625 -3.007812 5.171875 -2.4375 C 5.953125 -1.875 6.941406 -1.59375 8.140625 -1.59375 C 10.898438 -1.59375 12.820312 -3.253906 13.90625 -6.578125 Z M 15.90625 -5.796875 "/></g></g></g><g fill="#1ccdf1" fill-opacity="1"><g transform="translate(217.003038, 365.358282)"><g><path d="M 15.671875 0 L 12.828125 0 L 5.484375 -10.8125 L 3.15625 -8.203125 L 3.15625 0 L 0.828125 0 L 0.828125 -22.09375 L 3.15625 -22.09375 L 3.15625 -11.34375 L 12.609375 -22.09375 L 15.671875 -22.09375 L 7.015625 -12.4375 Z M 15.671875 0 "/></g></g></g><g fill="#1ccdf1" fill-opacity="1"><g transform="translate(235.929095, 365.358282)"><g><path d="M 15.21875 -5.75 C 15.21875 -4.832031 15.023438 -3.992188 14.640625 -3.234375 C 14.253906 -2.484375 13.738281 -1.835938 13.09375 -1.296875 C 12.457031 -0.753906 11.722656 -0.335938 10.890625 -0.046875 C 10.054688 0.242188 9.1875 0.390625 8.28125 0.390625 C 7.039062 0.390625 5.898438 0.160156 4.859375 -0.296875 C 3.816406 -0.765625 2.992188 -1.453125 2.390625 -2.359375 L 2.390625 0 L 0.421875 0 L 0.421875 -6.71875 L 2.390625 -6.71875 C 2.390625 -5.96875 2.5625 -5.273438 2.90625 -4.640625 C 3.257812 -4.015625 3.707031 -3.476562 4.25 -3.03125 C 4.789062 -2.582031 5.410156 -2.226562 6.109375 -1.96875 C 6.816406 -1.71875 7.539062 -1.59375 8.28125 -1.59375 C 8.9375 -1.59375 9.539062 -1.6875 10.09375 -1.875 C 10.644531 -2.0625 11.128906 -2.328125 11.546875 -2.671875 C 11.960938 -3.015625 12.289062 -3.429688 12.53125 -3.921875 C 12.78125 -4.421875 12.90625 -4.988281 12.90625 -5.625 C 12.90625 -6.332031 12.75 -6.9375 12.4375 -7.4375 C 12.125 -7.945312 11.703125 -8.382812 11.171875 -8.75 C 10.648438 -9.113281 10.0625 -9.421875 9.40625 -9.671875 C 8.757812 -9.929688 8.097656 -10.179688 7.421875 -10.421875 C 6.617188 -10.710938 5.816406 -11.007812 5.015625 -11.3125 C 4.210938 -11.625 3.492188 -12.015625 2.859375 -12.484375 C 2.222656 -12.960938 1.707031 -13.539062 1.3125 -14.21875 C 0.925781 -14.90625 0.734375 -15.757812 0.734375 -16.78125 C 0.734375 -17.675781 0.921875 -18.476562 1.296875 -19.1875 C 1.679688 -19.894531 2.179688 -20.488281 2.796875 -20.96875 C 3.421875 -21.457031 4.144531 -21.828125 4.96875 -22.078125 C 5.800781 -22.335938 6.648438 -22.46875 7.515625 -22.46875 C 8.585938 -22.46875 9.578125 -22.242188 10.484375 -21.796875 C 11.390625 -21.359375 12.097656 -20.691406 12.609375 -19.796875 L 12.609375 -22.09375 L 14.65625 -22.09375 L 14.65625 -15.78125 L 12.609375 -15.78125 C 12.609375 -16.445312 12.46875 -17.066406 12.1875 -17.640625 C 11.914062 -18.222656 11.539062 -18.71875 11.0625 -19.125 C 10.59375 -19.539062 10.050781 -19.867188 9.4375 -20.109375 C 8.832031 -20.359375 8.191406 -20.484375 7.515625 -20.484375 C 6.921875 -20.484375 6.351562 -20.414062 5.8125 -20.28125 C 5.269531 -20.144531 4.796875 -19.925781 4.390625 -19.625 C 3.984375 -19.332031 3.65625 -18.945312 3.40625 -18.46875 C 3.164062 -18 3.046875 -17.4375 3.046875 -16.78125 C 3.046875 -16.195312 3.1875 -15.703125 3.46875 -15.296875 C 3.757812 -14.890625 4.144531 -14.53125 4.625 -14.21875 C 5.113281 -13.914062 5.675781 -13.632812 6.3125 -13.375 C 6.957031 -13.125 7.613281 -12.867188 8.28125 -12.609375 C 9.113281 -12.316406 9.941406 -11.988281 10.765625 -11.625 C 11.585938 -11.269531 12.328125 -10.835938 12.984375 -10.328125 C 13.640625 -9.816406 14.175781 -9.191406 14.59375 -8.453125 C 15.007812 -7.710938 15.21875 -6.8125 15.21875 -5.75 Z M 15.21875 -5.75 "/></g></g></g><g fill="#1ccdf1" fill-opacity="1"><g transform="translate(254.855152, 365.358282)"><g><path d="M 16.84375 0 L 14.359375 0 L 12.28125 -6.3125 L 3.53125 -6.3125 L 1.484375 0 L -1 0 L 6.34375 -22.09375 L 9.5 -22.09375 Z M 11.609375 -8.359375 L 7.90625 -19.75 L 4.203125 -8.359375 Z M 11.609375 -8.359375 "/></g></g></g><g fill="#1ccdf1" fill-opacity="1"><g transform="translate(273.781209, 365.358282)"><g><path d="M 16.84375 -22.09375 L 12.859375 0 L 10.125 0 L 7.875 -10.78125 L 5.59375 0 L 2.875 0 L -1.0625 -22.09375 L 1.390625 -22.09375 L 4.5 -3.90625 L 6.71875 -15.78125 L 9 -15.78125 L 11.234375 -3.90625 L 14.359375 -22.09375 Z M 16.84375 -22.09375 "/></g></g></g></svg>